<svg version="1.1" id="Layer_1" xmlns="http://www.w3.org/2000/svg" xmlns:xlink="http://www.w3.org/1999/xlink" x="0px" y="0px"
	 width="100%" viewBox="0 0 1000 1000" xml:space="preserve">
<path fill="#FFFFFF" opacity="1.000000" stroke="none"
	d="
M907.743286,605.755554
	C900.502686,612.998535 901.000671,612.390686 893.269348,606.056152
	C884.268127,598.681152 881.320190,590.257874 881.697510,578.590149
	C882.623474,549.954224 881.936829,521.267822 882.120850,492.603210
	C882.135559,490.309143 883.360107,487.598419 884.885925,485.823730
	C888.459839,481.666809 892.664368,478.059418 896.403320,474.034271
	C898.546387,471.727142 900.329041,471.128448 902.394653,473.912415
	C902.590088,474.175781 902.877441,474.369476 903.112549,474.605103
	C907.698120,479.200775 914.054504,483.058136 916.368530,488.602478
	C918.682922,494.148010 916.984497,501.380463 916.993713,507.873474
	C917.013306,521.706421 916.869629,535.540894 917.037231,549.371826
	C917.195801,562.459412 917.447571,575.554382 918.112488,588.622986
	C918.362488,593.536560 917.198364,597.223999 913.331970,600.245239
	C911.376831,601.772949 909.763550,603.738159 907.743286,605.755554
z"/>
<path fill="#FFFFFF" opacity="1.000000" stroke="none" 
	d="
M709.999878,586.912354 
	C710.975891,593.120850 709.003479,597.513794 704.464966,601.157532 
	C701.367859,603.644104 698.570923,606.583130 695.999634,609.624146 
	C693.332397,612.778625 691.452576,612.302368 688.848694,609.472961 
	C684.121582,604.336609 677.126221,600.322937 674.643738,594.356812 
	C672.158936,588.385010 674.008057,580.598633 674.005005,573.607605 
	C673.993225,546.631042 673.922058,519.653870 674.134155,492.678955 
	C674.153198,490.258484 675.555115,487.429199 677.178650,485.526978 
	C680.733643,481.361786 684.946960,477.766418 688.686584,473.747711 
	C690.799133,471.477509 692.284546,471.615662 694.360596,473.802521 
	C699.054077,478.746490 705.682373,482.720337 708.277527,488.537018 
	C710.698853,493.964325 708.974365,501.262695 708.989624,507.737671 
	C709.022156,521.558899 708.870117,535.381836 709.038025,549.201111 
	C709.188843,561.611755 709.666443,574.018372 709.999878,586.912354 
z"/>
<path fill="#FFFFFF" opacity="1.000000" stroke="none" 
	d="
M407.940796,595.439819 
	C407.458496,593.544067 407.031250,591.966370 407.029388,590.388123 
	C406.990723,557.732849 406.942261,525.077209 407.126007,492.422913 
	C407.138794,490.150513 408.475891,487.480682 410.014496,485.703156 
	C413.602142,481.558380 417.819946,477.965424 421.523956,473.912659 
	C423.801910,471.420227 425.361572,471.633942 427.556519,473.992096 
	C431.524323,478.254913 435.881561,482.156921 439.813873,486.449890 
	C440.990784,487.734741 441.888458,489.810669 441.911804,491.537720 
	C442.363525,524.943665 442.716400,558.351440 442.882050,591.759888 
	C442.892639,593.892822 441.680634,596.444458 440.230896,598.091492 
	C436.497681,602.332825 432.212128,606.082581 428.345947,610.214600 
	C426.263977,612.439697 424.786621,612.458862 422.667938,610.234619 
	C417.962769,605.295105 413.032471,600.570068 407.940796,595.439819 
z"/>
<path fill="#FFFFFF" opacity="1.000000" stroke="none" 
	d="
M199.000351,577.997375 
	C199.000412,549.191711 198.936035,520.885071 199.121582,492.580048 
	C199.136597,490.290192 200.371582,487.586548 201.897339,485.813049 
	C205.469299,481.660950 209.667984,478.055267 213.403854,474.034088 
	C215.542618,471.731995 217.324036,471.124542 219.390350,473.907501 
	C219.585724,474.170593 219.872681,474.364197 220.107529,474.599640 
	C224.688583,479.191284 231.035202,483.045624 233.351074,488.584930 
	C235.666183,494.122406 233.982803,501.345551 233.992645,507.829865 
	C234.014633,522.315979 233.869690,536.803650 234.037262,551.287842 
	C234.194336,564.862610 234.772812,578.432983 234.882446,592.007507 
	C234.898544,594.000671 233.794830,596.408691 232.433029,597.929932 
	C228.554230,602.262756 224.201477,606.167053 220.184387,610.382202 
	C218.264450,612.396790 216.816254,612.475586 214.857941,610.428162 
	C210.258652,605.619629 205.425720,601.033569 200.860519,596.194031 
	C199.868057,595.142029 199.156174,593.427795 199.083038,591.979797 
	C198.856537,587.495544 199.000305,582.992554 199.000351,577.997375 
z"/>
<path fill="#FFFFFF" opacity="1.000000" stroke="none" 
	d="
M337.000000,597.000427 
	C358.657837,597.000488 379.816193,596.934326 400.972595,597.107666 
	C402.983795,597.124146 405.393005,598.181702 406.913086,599.542603 
	C412.230774,604.303345 417.239685,609.408997 423.235168,615.227295 
	C417.403412,620.730835 412.058624,625.904419 406.526611,630.869446 
	C405.592987,631.707397 403.852600,631.952820 402.484100,631.955078 
	C368.165192,632.012207 333.846100,632.023987 299.527374,631.923706 
	C297.935760,631.919067 295.961639,631.209473 294.823975,630.132690 
	C289.755402,625.335449 284.926392,620.285217 279.573608,614.885437 
	C285.329041,609.162354 290.997955,603.385315 296.877838,597.831604 
	C297.744934,597.012573 299.609985,597.040466 301.015045,597.033569 
	C312.843140,596.975403 324.671631,597.000427 337.000000,597.000427 
z"/>
<path fill="#FFFFFF" opacity="1.000000" stroke="none" 
	d="
M87.557358,631.055298 
	C81.991302,625.750671 76.740112,620.696045 70.866943,615.042725 
	C77.012360,609.089417 82.536583,603.620605 88.232590,598.336975 
	C89.164017,597.472961 90.852089,597.057007 92.191696,597.054321 
	C126.144691,596.985962 160.097885,596.984131 194.050842,597.062378 
	C195.360367,597.065369 196.987579,597.637878 197.923691,598.520813 
	C203.471634,603.753357 208.859055,609.156128 214.932663,615.122742 
	C209.247253,620.622437 203.941757,625.827637 198.521744,630.910767 
	C197.797134,631.590271 196.493393,631.954651 195.457184,631.955933 
	C160.006485,632.000854 124.555695,631.986572 89.104950,631.948730 
	C88.693810,631.948303 88.283112,631.528992 87.557358,631.055298 
z"/>
<path fill="#FFFFFF" opacity="1.000000" stroke="none" 
	d="
M679.744873,624.754028 
	C675.327393,631.087219 669.535400,632.242798 662.390686,632.159546 
	C630.762756,631.790894 599.127686,632.058838 567.496582,631.876709 
	C565.217529,631.863525 562.510864,630.588745 560.758728,629.043640 
	C555.906738,624.765137 551.454712,620.033020 546.461304,615.101685 
	C552.366699,609.193665 558.030396,603.419006 563.864380,597.821960 
	C564.633728,597.083862 566.272156,597.033630 567.508606,597.032166 
	C601.138611,596.992432 634.768677,596.976685 668.398499,597.074219 
	C669.998535,597.078857 671.987915,597.739380 673.127136,598.807678 
	C678.579224,603.920532 683.800598,609.279358 690.014771,615.456116 
	C686.581055,618.557251 683.288879,621.530518 679.744873,624.754028 
z"/>
<path fill="#FFFFFF" opacity="1.000000" stroke="none" 
	d="
M767.788696,601.709045 
	C770.667603,597.734070 774.181335,596.858643 778.710510,596.888306 
	C810.838928,597.098938 842.969666,597.049866 875.098999,596.925049 
	C878.362122,596.912415 880.608276,597.876648 882.819763,600.206665 
	C887.495483,605.132996 892.466125,609.779419 897.852173,615.067261 
	C892.169678,620.607849 886.911072,625.871887 881.453735,630.921265 
	C880.546387,631.760681 878.773499,631.955322 877.399841,631.957458 
	C843.105896,632.011597 808.811768,632.024048 774.518066,631.923584 
	C772.928406,631.918884 770.965637,631.201538 769.819031,630.129272 
	C764.724731,625.365601 759.864807,620.351135 754.265869,614.775757 
	C758.764832,610.436646 763.151855,606.205444 767.788696,601.709045 
z"/>
<path fill="#FFFFFF" opacity="1.000000" stroke="none" 
	d="
M79.249565,330.748108 
	C76.592262,328.204071 74.184906,325.910461 71.218163,323.083923 
	C76.883186,317.497589 82.227951,312.117157 87.740547,306.914520 
	C88.529991,306.169495 90.130013,306.037598 91.355438,306.036011 
	C125.818237,305.991425 160.281128,305.986328 194.743866,306.052002 
	C196.091660,306.054565 197.791931,306.432159 198.726639,307.290131 
	C204.093277,312.216095 209.278168,317.340088 215.126541,322.976990 
	C208.962845,328.946716 203.434235,334.420898 197.730164,339.705719 
	C196.801193,340.566406 195.096939,340.945221 193.749847,340.947845 
	C159.953079,341.014038 126.156013,341.032196 92.359581,340.905365 
	C90.653442,340.898956 88.666016,339.856537 87.308990,338.706940 
	C84.526215,336.349487 82.082695,333.591553 79.249565,330.748108 
z"/>
<path fill="#FFFFFF" opacity="1.000000" stroke="none" 
	d="
M287.249542,330.748108 
	C284.592194,328.204102 282.184784,325.910553 279.218262,323.084320 
	C284.883423,317.497711 290.228088,312.117188 295.740601,306.914490 
	C296.530029,306.169434 298.130066,306.037628 299.355469,306.036041 
	C333.818268,305.991455 368.281158,305.986328 402.743896,306.052002 
	C404.091675,306.054565 405.791962,306.432159 406.726654,307.290131 
	C412.093170,312.216278 417.277924,317.340363 423.126068,322.977234 
	C416.962708,328.946625 411.434082,334.420807 405.730072,339.705688 
	C404.801117,340.566345 403.096924,340.945190 401.749847,340.947845 
	C367.953064,341.014038 334.155975,341.032196 300.359558,340.905396 
	C298.653412,340.898956 296.666046,339.856476 295.308990,338.706909 
	C292.526245,336.349457 290.082672,333.591553 287.249542,330.748108 
z"/>
<path fill="#FFFFFF" opacity="1.000000" stroke="none" 
	d="
M603.000000,341.000000 
	C591.004761,341.000000 579.507202,341.117981 568.016541,340.888947 
	C565.997864,340.848694 563.593323,339.813660 562.079956,338.447968 
	C556.782227,333.667145 551.796509,328.540649 545.853943,322.725067 
	C551.615906,317.275330 556.955322,312.095001 562.483032,307.124023 
	C563.414734,306.286163 565.158508,306.047028 566.527832,306.044769 
	C600.846863,305.988007 635.165955,305.976044 669.484741,306.076813 
	C671.074890,306.081482 673.045959,306.798828 674.183960,307.876617 
	C679.250244,312.674652 684.077759,317.724792 689.430664,323.127014 
	C683.669312,328.849670 678.013489,334.643250 672.101929,340.162964 
	C671.138550,341.062531 669.045227,340.964355 667.473389,340.967865 
	C646.149048,341.015686 624.824463,341.000000 603.000000,341.000000 
z"/>
<path fill="#FFFFFF" opacity="1.000000" stroke="none" 
	d="
M864.995300,306.000000 
	C876.269897,304.133759 884.785217,307.550232 891.179810,316.558533 
	C892.777222,318.808777 895.266602,320.425842 897.800842,322.751373 
	C891.664001,328.849548 885.976929,334.609070 880.119873,340.190216 
	C879.347168,340.926544 877.707153,340.967194 876.468384,340.968628 
	C842.815491,341.007843 809.162415,341.018036 775.509644,340.939758 
	C774.025024,340.936310 772.154236,340.469543 771.123718,339.509674 
	C765.536255,334.305267 760.156738,328.877686 753.888000,322.724426 
	C759.629700,317.283142 764.928833,312.055328 770.508057,307.145721 
	C771.641418,306.148407 773.829773,306.048523 775.532898,306.044952 
	C805.187317,305.982666 834.841980,306.000031 864.995300,306.000000 
z"/>
<path fill="#FFFFFF" opacity="1.000000" stroke="none" 
	d="
M708.999573,428.999756 
	C708.999573,429.666290 709.000244,429.832947 708.999512,429.999573 
	C708.970154,436.496857 710.801514,443.811615 708.404297,449.268707 
	C705.846619,455.090881 699.187561,459.058563 694.530823,464.034180 
	C692.295349,466.422760 690.537659,466.706360 688.540955,464.020142 
	C688.443542,463.889038 688.290466,463.800873 688.173096,463.682953 
	C683.479004,458.966217 677.025452,455.000671 674.596375,449.315582 
	C672.244019,443.810303 674.007202,436.536224 674.004578,430.039032 
	C673.994141,404.377289 674.314453,378.709229 673.795166,353.057983 
	C673.652405,346.005096 675.915588,340.934021 680.372742,336.051727 
	C690.960144,324.454407 690.623535,324.685425 702.045288,335.299164 
	C707.357910,340.235931 709.297546,345.308746 709.171509,352.517426 
	C708.728760,377.838135 708.999573,403.171356 708.999573,428.999756 
z"/>
<path fill="#FFFFFF" opacity="1.000000" stroke="none" 
	d="
M888.742615,456.242554 
	C882.959839,452.100494 881.759338,446.818756 881.842773,440.172211 
	C882.208435,411.035706 882.301636,381.886658 881.784546,352.754700 
	C881.657959,345.624542 884.045105,340.567444 888.619202,335.886108 
	C891.294678,333.147888 894.153137,330.578949 896.705750,327.733276 
	C898.796021,325.403046 900.317383,325.654633 902.376526,327.821533 
	C907.072266,332.763367 913.703186,336.737396 916.294556,342.554016 
	C918.713562,347.983765 916.985352,355.284821 916.990356,361.762268 
	C917.011841,389.737732 917.057068,417.713531 916.886414,445.687958 
	C916.873291,447.838165 915.725281,450.391174 914.285339,452.042267 
	C910.683533,456.172150 906.483704,459.774689 902.772705,463.817230 
	C900.474182,466.321167 898.752808,466.774597 896.368530,463.945404 
	C894.123901,461.281860 891.469849,458.963348 888.742615,456.242554 
z"/>
<path fill="#FFFFFF" opacity="1.000000" stroke="none" 
	d="
M407.000183,368.000000 
	C407.000153,362.667603 407.550018,357.756409 406.871338,353.021271 
	C405.851715,345.907379 408.961395,340.881744 413.412170,336.018555 
	C423.977722,324.473877 423.645813,324.721008 435.083649,335.332550 
	C440.416473,340.280151 442.254486,345.389526 442.164917,352.567474 
	C441.778229,383.556671 442.060364,414.553802 441.874603,445.546692 
	C441.860962,447.822540 440.543823,450.501709 439.005066,452.275330 
	C435.302734,456.542755 431.036255,460.315063 427.143555,464.425568 
	C425.192871,466.485382 423.734894,466.397675 421.814545,464.379669 
	C417.568726,459.917969 412.997467,455.756653 408.903229,451.165771 
	C407.681671,449.795990 407.087189,447.409454 407.078400,445.484802 
	C406.961670,419.823639 407.000275,394.161713 407.000183,368.000000 
z"/>
<path fill="#FFFFFF" opacity="1.000000" stroke="none" 
	d="
M199.000320,398.000000 
	C199.000259,382.669525 199.471481,367.817535 198.795624,353.017914 
	C198.471619,345.922760 200.956161,340.887695 205.407684,336.022308 
	C215.975830,324.471680 215.643463,324.716797 227.079239,335.328827 
	C232.409454,340.275116 234.255554,345.380707 234.165588,352.561676 
	C233.777344,383.550842 234.060226,414.548004 233.874725,445.540924 
	C233.861099,447.817383 232.547623,450.498016 231.009277,452.271454 
	C227.307297,456.539154 223.039993,460.310669 219.147446,464.421326 
	C217.199631,466.478241 215.741913,466.405518 213.818390,464.384033 
	C209.572739,459.922150 205.030624,455.736755 200.894684,451.179749 
	C199.748749,449.917114 199.095215,447.749847 199.080078,445.990204 
	C198.943848,430.161072 199.000381,414.330292 199.000320,398.000000 
z"/>
<path fill="#FFFFFF" opacity="1.000000" stroke="none" 
	d="
M86.999512,381.000000 
	C86.999504,402.978363 87.063950,424.457245 86.893776,445.934265 
	C86.877815,447.948853 85.862556,450.398804 84.485939,451.879120 
	C79.700699,457.024811 74.551788,461.832306 69.198158,467.106354 
	C63.440407,461.202942 58.375340,456.165222 53.537796,450.917816 
	C52.577835,449.876495 52.067062,448.032043 52.063007,446.556000 
	C51.979752,416.253448 51.962471,385.950470 52.044624,355.647888 
	C52.055691,351.567291 51.776562,347.122192 53.254646,343.509949 
	C54.781162,339.779327 58.103546,336.687164 60.963516,333.616791 
	C69.233147,324.738770 68.890877,325.263306 77.958389,333.180695 
	C85.060936,339.382355 88.175240,346.069092 87.179604,355.544098 
	C86.314362,363.778137 86.999512,372.175049 86.999512,381.000000 
z"/>
<path fill="#FFFFFF" opacity="1.000000" stroke="none" 
	d="
M294.999542,409.000000 
	C294.999512,421.654419 295.110718,433.810852 294.889679,445.961273 
	C294.852936,447.980438 293.847656,450.424408 292.464508,451.896545 
	C287.653473,457.016937 282.479309,461.796112 277.122131,467.018097 
	C271.426971,461.184387 266.356842,456.147919 261.516632,450.899414 
	C260.558197,449.860077 260.066071,448.007355 260.062042,446.527863 
	C259.980011,416.225281 259.962463,385.922333 260.044617,355.619751 
	C260.055725,351.539154 259.774200,347.091949 261.255493,343.482330 
	C262.786224,339.752319 266.119415,336.666626 268.983643,333.597260 
	C277.241852,324.747650 276.905304,325.263519 285.976471,333.203033 
	C293.065033,339.407318 295.685486,346.104553 295.238373,355.564606 
	C294.406036,373.174164 294.999542,390.851105 294.999542,409.000000 
z"/>
<path fill="#FFFFFF" opacity="1.000000" stroke="none" 
	d="
M53.000492,591.749634 
	C52.667160,558.411682 52.277496,525.516907 52.122501,492.621094 
	C52.111732,490.336090 53.328083,487.587585 54.866352,485.840515 
	C59.146267,480.979645 63.896694,476.533051 69.370438,471.004547 
	C75.071419,476.673645 80.684242,482.145477 86.119812,487.788086 
	C86.864906,488.561584 86.963509,490.184387 86.965088,491.414490 
	C87.008080,525.058655 87.029648,558.702942 86.912819,592.346680 
	C86.906807,594.075012 86.055397,596.178467 84.886162,597.456238 
	C80.845070,601.872314 76.420921,605.935120 72.283737,610.267212 
	C70.448418,612.188965 68.953682,612.723694 66.969307,610.526794 
	C62.660133,605.756287 58.166351,601.149292 53.959206,596.292603 
	C53.145817,595.353638 53.295219,593.580750 53.000492,591.749634 
z"/>
<path fill="#FFFFFF" opacity="1.000000" stroke="none" 
	d="
M260.000366,516.000000 
	C260.000458,507.508301 259.903961,499.514496 260.081909,491.526733 
	C260.117554,489.925262 260.793915,487.969391 261.865845,486.823181 
	C266.631897,481.727142 271.648987,476.865936 277.218170,471.274353 
	C282.853790,476.712677 288.457367,481.986420 293.853729,487.464325 
	C294.712952,488.336578 294.951630,490.125580 294.953979,491.491699 
	C295.012085,525.123291 294.999664,558.755005 294.998596,592.386658 
	C294.998566,593.218872 295.342010,594.389893 294.922974,594.831909 
	C289.473236,600.580627 283.943115,606.254944 278.309906,611.823181 
	C277.979279,612.150024 276.298492,611.695190 275.746216,611.122070 
	C270.942291,606.136963 265.321228,601.596130 261.860382,595.781982 
	C259.595825,591.977661 260.105499,586.284302 260.069580,581.431946 
	C259.909454,559.788940 260.000214,538.144165 260.000366,516.000000 
z"/>
<path fill="#FFFFFF" opacity="1.000000" stroke="none" 
	d="
M527.000366,528.000000 
	C527.000427,515.678955 526.886353,503.855774 527.110413,492.038971 
	C527.148682,490.019287 528.175659,487.620422 529.532166,486.096771 
	C533.950439,481.134308 538.733093,476.496338 544.023804,471.068542 
	C549.853577,476.699768 555.453247,481.975311 560.846191,487.454254 
	C561.706116,488.327911 561.951355,490.114044 561.953735,491.479248 
	C562.012207,525.110840 562.029907,558.742676 561.912170,592.373901 
	C561.906067,594.099670 561.041687,596.197815 559.871033,597.476196 
	C555.829712,601.889221 551.407104,605.950256 547.271729,610.281067 
	C545.427612,612.212219 543.932007,612.701172 541.958374,610.515259 
	C537.651978,605.745483 533.197815,601.108398 528.929749,596.305481 
	C528.276489,595.570312 528.059998,594.244995 528.035461,593.183472 
	C527.652161,576.618042 527.311035,560.051453 527.014282,543.484192 
	C526.924805,538.490967 527.000366,533.494812 527.000366,528.000000 
z"/>
<path fill="#FFFFFF" opacity="1.000000" stroke="none" 
	d="
M769.999573,532.000000 
	C769.999573,552.312744 770.069397,572.126038 769.893433,591.937256 
	C769.875610,593.952148 768.840637,596.365479 767.483276,597.883667 
	C763.607788,602.218262 759.250427,606.117676 755.230469,610.329346 
	C753.350403,612.299011 751.852539,612.618591 749.915222,610.468750 
	C745.613403,605.694885 741.171936,601.046875 736.879822,596.264709 
	C736.310913,595.630859 736.071655,594.522583 736.033142,593.618896 
	C735.646545,584.546814 735.095337,575.472778 735.046143,566.396851 
	C734.912476,541.756531 734.924927,517.114380 735.125671,492.474945 
	C735.144226,490.196075 736.418762,487.483978 737.973938,485.745972 
	C742.287109,480.925354 747.056763,476.513245 752.292114,471.295837 
	C757.898926,476.726257 763.515198,481.994690 768.871521,487.515289 
	C769.807800,488.480255 769.944153,490.503754 769.953491,492.041382 
	C770.033813,505.193848 769.999573,518.347046 769.999573,532.000000 
z"/>
<path fill="#FFFFFF" opacity="1.000000" stroke="none" 
	d="
M531.957458,338.885986 
	C532.417969,338.299896 532.878479,337.713806 533.967834,337.024292 
	C536.525085,335.390137 538.620605,334.025513 540.344360,332.291351 
	C543.217712,329.400696 545.555542,329.584167 548.216858,332.633850 
	C550.839539,335.639282 554.148682,338.082336 556.543396,341.237549 
	C558.227295,343.456238 559.835693,346.447357 559.854797,349.105286 
	C560.080688,380.421875 560.024963,411.740723 559.938354,443.058685 
	C559.933105,444.957794 559.578430,447.289307 558.461243,448.672363 
	C554.817200,453.183746 550.864441,457.471100 546.725464,461.534027 
	C545.979492,462.266235 543.224976,462.143219 542.364868,461.357056 
	C539.068054,458.343536 536.331238,454.721588 533.067139,451.666748 
	C530.024170,448.818878 528.888611,445.630035 528.930054,441.483795 
	C529.098389,424.660278 529.051514,407.833679 528.919922,391.009521 
	C528.906860,389.335052 527.777832,387.669373 527.166748,385.999603 
	C527.111328,375.513947 527.013245,365.028137 527.046570,354.542755 
	C527.051575,352.979004 527.674377,351.417267 528.443604,349.342651 
	C529.902954,345.515808 530.930176,342.200897 531.957458,338.885986 
z"/>
<path fill="#FFFFFF" opacity="1.000000" stroke="none" 
	d="
M735.166748,384.999573 
	C735.115234,384.247131 735.063721,383.494690 735.468628,382.267090 
	C737.235840,377.760620 738.631775,373.723816 735.166687,369.999603 
	C735.444153,363.615143 735.721680,357.230682 736.438599,350.337738 
	C738.565125,345.521423 740.252319,341.213593 741.939575,336.905762 
	C741.939514,336.905762 741.983948,336.986511 742.298035,336.949738 
	C743.324890,336.518677 744.131531,336.233551 744.736145,335.713531 
	C752.518311,329.019592 752.510925,329.011139 759.819458,336.319489 
	C760.643738,337.143860 761.389893,338.069489 762.305603,338.775391 
	C766.959473,342.363007 768.127014,347.121216 768.085632,352.834778 
	C767.892456,379.479462 767.699341,406.131500 768.158630,432.769653 
	C768.325500,442.448792 767.389343,450.939606 758.724854,456.865082 
	C757.695557,457.569031 757.185608,459.000793 756.349854,460.025787 
	C754.413452,462.400391 752.281738,462.756348 749.994446,460.480499 
	C747.397278,457.896271 744.974243,455.105530 742.175964,452.762299 
	C738.100159,449.349243 736.882446,445.123047 736.935791,439.967834 
	C737.107910,423.315826 737.052002,406.660492 736.919922,390.007721 
	C736.906677,388.333801 735.777893,386.668762 735.166748,384.999573 
z"/>
<path fill="#FFFFFF" opacity="1.000000" stroke="none" 
	d="
M504.750488,521.748291 
	C501.876312,524.770081 499.252319,527.541321 496.081604,530.889954 
	C490.419952,525.106323 484.883484,519.882263 479.961975,514.131897 
	C478.665253,512.616821 479.373901,509.457764 478.981445,507.083435 
	C477.619324,498.842651 480.161713,492.323517 487.025604,487.374786 
	C489.289917,485.742279 491.247833,483.575714 493.012390,481.384796 
	C495.606293,478.164062 497.628754,478.611023 500.135193,481.542145 
	C503.875916,485.916656 507.974182,489.984131 511.768982,494.314880 
	C512.527649,495.180664 512.789551,496.617004 512.953125,497.834259 
	C513.150757,499.305634 512.784851,500.860901 513.035767,502.315552 
	C514.438660,510.448822 511.779236,516.821106 504.750488,521.748291 
z"/>
<path fill="#FFFFFF" opacity="1.000000" stroke="none" 
	d="
M494.957672,583.885437 
	C496.870880,584.323120 499.296509,584.171204 500.603119,585.306824 
	C504.846924,588.995300 508.762878,593.078674 512.610229,597.192139 
	C513.478149,598.120056 513.844482,599.765320 513.939697,601.115784 
	C514.137695,603.922729 513.718262,606.788391 514.064392,609.566223 
	C514.605774,613.911499 513.177917,617.210449 509.064636,619.904053 
	C507.580292,620.229919 506.669220,620.244507 506.029816,620.668701 
	C502.551849,622.975647 498.872711,627.557190 495.778595,627.175476 
	C492.349274,626.752319 489.421112,621.880371 486.370270,618.849487 
	C477.764648,610.300171 478.785309,599.095886 488.437927,591.631775 
	C491.047485,589.613831 492.807648,586.497559 494.957672,583.885437 
z"/>
<path fill="#FFFFFF" opacity="1.000000" stroke="none" 
	d="
M735.089233,385.462585 
	C735.777893,386.668762 736.906677,388.333801 736.919922,390.007721 
	C737.052002,406.660492 737.107910,423.315826 736.935791,439.967834 
	C736.882446,445.123047 738.100159,449.349243 742.175964,452.762299 
	C744.974243,455.105530 747.397278,457.896271 749.994446,460.480499 
	C752.281738,462.756348 754.413452,462.400391 756.349854,460.025787 
	C757.185608,459.000793 757.695557,457.569031 758.724854,456.865082 
	C767.389343,450.939606 768.325500,442.448792 768.158630,432.769653 
	C767.699341,406.131500 767.892456,379.479462 768.085632,352.834778 
	C768.127014,347.121216 766.959473,342.363007 762.305603,338.775391 
	C761.389893,338.069489 760.643738,337.143860 759.819458,336.319489 
	C752.510925,329.011139 752.518311,329.019592 744.736145,335.713531 
	C744.131531,336.233551 743.324890,336.518677 742.257690,336.927429 
	C744.903381,333.288086 747.903442,329.634308 751.358276,325.426727 
	C757.623230,331.167450 763.547241,336.482361 769.283875,341.992279 
	C770.020813,342.700073 769.971558,344.420441 769.972839,345.672028 
	C770.006897,379.313660 770.004517,412.955322 769.979919,446.596985 
	C769.979126,447.706299 770.091614,449.213196 769.460083,449.862274 
	C763.956604,455.518982 758.295166,461.022034 752.003113,467.240417 
	C746.286499,461.263397 741.050110,455.966949 736.080444,450.431000 
	C735.165771,449.412140 735.047852,447.423431 735.043152,445.880859 
	C734.981934,425.895905 735.007751,405.910736 735.089233,385.462585 
z"/>
<path fill="#FFFFFF" opacity="1.000000" stroke="none" 
	d="
M527.089233,386.462585 
	C527.777832,387.669373 528.906860,389.335052 528.919922,391.009521 
	C529.051514,407.833679 529.098389,424.660278 528.930054,441.483795 
	C528.888611,445.630035 530.024170,448.818878 533.067139,451.666748 
	C536.331238,454.721588 539.068054,458.343536 542.364868,461.357056 
	C543.224976,462.143219 545.979492,462.266235 546.725464,461.534027 
	C550.864441,457.471100 554.817200,453.183746 558.461243,448.672363 
	C559.578430,447.289307 559.933105,444.957794 559.938354,443.058685 
	C560.024963,411.740723 560.080688,380.421875 559.854797,349.105286 
	C559.835693,346.447357 558.227295,343.456238 556.543396,341.237549 
	C554.148682,338.082336 550.839539,335.639282 548.216858,332.633850 
	C545.555542,329.584167 543.217712,329.400696 540.344360,332.291351 
	C538.620605,334.025513 536.525085,335.390137 534.241089,336.939392 
	C537.009521,333.193176 540.133606,329.428406 544.126892,324.616150 
	C550.272766,330.781799 556.001038,336.404938 561.524170,342.222717 
	C562.230164,342.966370 561.982483,344.724335 561.983337,346.012482 
	C562.004456,379.345703 562.042969,412.679077 561.893433,446.011627 
	C561.884460,448.016022 560.813293,450.460693 559.423462,451.933319 
	C554.603821,457.040253 549.425110,461.808289 544.278503,466.806793 
	C538.619324,461.120087 533.574524,456.273895 528.844849,451.137543 
	C527.696899,449.890869 527.087219,447.691345 527.076599,445.924866 
	C526.958984,426.259033 527.007812,406.592163 527.089233,386.462585 
z"/>
<path fill="#FFFFFF" opacity="1.000000" stroke="none" 
	d="
M494.591492,583.938599 
	C492.807648,586.497559 491.047485,589.613831 488.437927,591.631775 
	C478.785309,599.095886 477.764648,610.300171 486.370270,618.849487 
	C489.421112,621.880371 492.349274,626.752319 495.778595,627.175476 
	C498.872711,627.557190 502.551849,622.975647 506.029816,620.668701 
	C506.669220,620.244507 507.580292,620.229919 508.740173,620.034302 
	C505.669250,623.606812 502.356293,627.318176 498.679138,630.624451 
	C497.839203,631.379700 495.149384,631.386963 494.321930,630.631409 
	C489.427979,626.162354 484.774750,621.421692 480.191895,616.627747 
	C479.417603,615.817810 479.098633,614.317688 479.042725,613.114502 
	C478.345886,598.111450 478.336792,598.078491 489.137238,587.430298 
	C490.570312,586.017395 492.516663,585.125122 494.591492,583.938599 
z"/>
<path fill="#FFFFFF" opacity="1.000000" stroke="none" 
	d="
M741.618774,337.033936 
	C740.252319,341.213593 738.565125,345.521423 736.522278,349.914795 
	C734.869812,344.518951 736.925049,340.377350 741.618774,337.033936 
z"/>
<path fill="#FFFFFF" opacity="1.000000" stroke="none" 
	d="
M735.089294,370.454742 
	C738.631775,373.723816 737.235840,377.760620 735.545898,381.896118 
	C735.115173,378.303497 735.063538,374.606689 735.089294,370.454742 
z"/>
<path fill="#FFFFFF" opacity="1.000000" stroke="none" 
	d="
M531.621704,339.029205 
	C530.930176,342.200897 529.902954,345.515808 528.521240,348.915527 
	C527.580566,345.208282 527.597412,341.607697 531.621704,339.029205 
z"/>
</svg>