<?xml version="1.0" encoding="utf-8"?>
<svg width="800px" height="800px" viewBox="0 0 48 48" xmlns="http://www.w3.org/2000/svg">
  <defs/>
  <g>
    <g>
      <circle cx="5.291" cy="24.157" r="4.164" fill="#FFFFFF" style=""/>
      <path d="M 42.682 19.871 C 39.456 19.871 37.439 23.364 39.053 26.158 C 40.666 28.952 44.699 28.952 46.312 26.158 C 46.68 25.521 46.874 24.798 46.874 24.062 C 46.874 21.747 44.997 19.871 42.682 19.871 Z M 42.682 25.459 C 41.607 25.459 40.935 24.295 41.473 23.364 C 42.01 22.433 43.354 22.433 43.892 23.364 C 44.015 23.576 44.08 23.817 44.08 24.062 C 44.08 24.834 43.454 25.459 42.682 25.459 Z" fill="#FFFFFF" style=""/>
      <path d="M 18.293 25.983 C 18.985 26.61 18.911 27.74 18.144 28.268 C 17.529 28.725 16.683 28.66 16.14 28.115 L 13.245 25.069 C 12.636 24.495 12.636 23.51 13.245 22.936 L 16.14 19.89 C 16.689 19.373 17.499 19.281 18.144 19.661 C 18.913 20.221 18.987 21.366 18.293 22.022 L 17.848 22.479 C 28.133 22.714 20.469 22.597 20.469 22.597 L 25.262 22.69 L 31.512 22.772 C 31.512 22.772 35.499 21.984 35.756 23.983 C 36.088 26.562 31.1 25.688 31.632 25.688 L 25.02 25.195 L 20.064 25.241 C 19.712 25.225 17.379 25.456 17.922 25.526 L 18.293 25.983" fill="#FFFFFF" style="transform-origin: 24.28px 24px;"/>
    </g>
  </g>
</svg>