<?xml version="1.0" encoding="utf-8"?>
<svg width="800px" height="800px" viewBox="0 0 48 48" xmlns="http://www.w3.org/2000/svg">
  <defs/>
  <g>
    <g>
      <circle cx="5.291" cy="24.157" r="4.164" fill="#FFFFFF" style=""/>
      <path d="M 42.682 19.871 C 39.456 19.871 37.439 23.364 39.053 26.158 C 40.666 28.952 44.699 28.952 46.312 26.158 C 46.68 25.521 46.874 24.798 46.874 24.062 C 46.874 21.747 44.997 19.871 42.682 19.871 Z M 42.682 25.459 C 41.607 25.459 40.935 24.295 41.473 23.364 C 42.01 22.433 43.354 22.433 43.892 23.364 C 44.015 23.576 44.08 23.817 44.08 24.062 C 44.08 24.834 43.454 25.459 42.682 25.459 Z" fill="#FFFFFF" style=""/>
      <path d="M 30.267 25.983 C 29.575 26.61 29.649 27.74 30.416 28.268 C 31.031 28.725 31.877 28.66 32.42 28.115 L 35.315 25.069 C 35.924 24.495 35.924 23.51 35.315 22.936 L 32.42 19.89 C 31.871 19.373 31.061 19.281 30.416 19.661 C 29.647 20.221 29.573 21.366 30.267 22.022 L 30.712 22.479 C 20.427 22.714 28.091 22.597 28.091 22.597 L 23.298 22.69 L 17.048 22.772 C 17.048 22.772 13.061 21.984 12.804 23.983 C 12.472 26.562 17.46 25.688 16.928 25.688 L 23.54 25.195 L 28.496 25.241 C 28.848 25.225 31.181 25.456 30.638 25.526 L 30.267 25.983" fill="#FFFFFF" style="transform-origin: 24.28px 24px;"/>
    </g>
  </g>
</svg>